<?xml version="1.0" standalone="no"?>
<!DOCTYPE svg PUBLIC "-//W3C//DTD SVG 20010904//EN"
 "http://www.w3.org/TR/2001/REC-SVG-20010904/DTD/svg10.dtd">
<svg version="1.0" xmlns="http://www.w3.org/2000/svg"
 width="512.000000pt" height="512.000000pt" viewBox="0 0 512.000000 512.000000"
 preserveAspectRatio="xMidYMid meet">
<metadata>
Created by potrace 1.14, written by Peter Selinger 2001-2017
</metadata>
<g transform="translate(0.000000,512.000000) scale(0.100000,-0.100000)"
fill="#000000" stroke="none">
<path d="M2158 5115 c-2 -2 -27 -6 -57 -10 -206 -26 -446 -129 -614 -264 -42
-34 -185 -178 -219 -221 -66 -85 -134 -203 -174 -306 -15 -38 -31 -74 -35 -80
-5 -6 -33 -16 -63 -23 -343 -77 -705 -384 -845 -717 -19 -43 -39 -92 -46 -109
-16 -37 -51 -190 -61 -265 -13 -97 -6 -363 11 -390 2 -3 6 -25 10 -50 4 -24
11 -52 15 -61 5 -9 11 -27 14 -40 20 -103 116 -288 215 -412 l58 -74 -12 -39
c-52 -159 -66 -433 -30 -599 29 -136 62 -231 116 -339 34 -68 103 -181 119
-196 3 -3 21 -25 42 -50 121 -149 284 -275 453 -350 39 -17 79 -35 90 -40 28
-13 153 -48 195 -55 19 -3 42 -8 50 -10 14 -4 185 -18 205 -17 126 7 188 13
226 20 l46 9 59 -59 c32 -33 70 -68 84 -79 51 -40 150 -109 155 -109 3 0 22
-10 43 -23 31 -20 89 -46 207 -92 11 -4 29 -10 40 -12 11 -2 31 -7 45 -13 14
-5 43 -12 65 -15 22 -4 54 -10 70 -13 40 -9 339 -8 394 1 214 36 464 145 606
267 41 34 185 180 210 211 69 87 144 217 185 324 13 33 28 65 34 71 9 10 47
22 118 39 82 19 303 129 363 181 16 13 32 24 37 24 22 0 220 214 276 298 120
180 204 404 216 572 1 14 4 30 7 35 15 31 -3 325 -24 390 -3 11 -8 31 -11 45
-10 51 -15 66 -39 130 -54 144 -113 249 -201 360 l-52 65 18 65 c10 36 21 81
24 100 3 19 8 49 11 65 14 70 5 377 -11 403 -2 4 -7 27 -11 50 -3 24 -18 77
-32 119 -86 256 -259 493 -471 646 -71 51 -272 163 -272 152 0 -3 -13 1 -29
10 -28 14 -196 61 -256 71 -56 9 -324 12 -362 4 -105 -23 -105 -23 -173 46
-125 125 -306 236 -480 295 -52 17 -104 33 -115 35 -11 1 -52 9 -92 17 -62 12
-335 21 -345 12z m293 -344 c30 -6 65 -13 79 -16 14 -3 30 -7 37 -9 7 -1 16
-5 19 -9 4 -4 14 -7 21 -7 35 0 293 -145 293 -165 0 -3 -454 -269 -555 -325
-22 -12 -77 -44 -123 -71 -45 -27 -87 -49 -92 -49 -6 0 -10 -4 -10 -10 0 -5
-4 -10 -9 -10 -15 0 -264 -147 -290 -171 -51 -48 -50 -34 -51 -815 0 -400 -2
-729 -4 -731 -2 -2 -86 45 -187 104 -101 58 -198 114 -215 122 l-31 16 0 640
c0 702 3 744 61 899 31 81 49 115 104 199 41 63 195 227 213 227 4 0 14 6 21
13 17 17 154 97 165 97 5 0 27 8 49 19 48 23 153 50 226 57 29 3 54 7 56 8 6
7 173 -3 223 -13z m1184 -395 c113 -12 190 -35 305 -89 49 -23 92 -47 125 -69
5 -4 43 -35 84 -70 234 -199 361 -518 326 -823 -1 -16 -3 -36 -4 -42 -1 -19
-17 -16 -59 10 -36 23 -712 415 -802 465 -25 14 -61 35 -80 47 -81 51 -161 85
-198 85 -45 0 -61 -8 -332 -165 -113 -65 -216 -125 -230 -132 -14 -8 -38 -23
-55 -33 -16 -11 -43 -26 -60 -34 -16 -9 -37 -20 -45 -26 -19 -13 -210 -124
-230 -133 -8 -4 -24 -13 -35 -20 -11 -7 -63 -36 -115 -66 -52 -30 -96 -58 -98
-63 -2 -4 -8 -8 -14 -8 -6 0 -32 -13 -59 -29 -31 -20 -49 -26 -51 -18 -7 21
-2 483 5 494 4 6 30 23 59 38 29 15 60 33 69 41 8 8 21 14 27 14 6 0 17 6 24
13 7 6 33 23 58 36 25 14 223 128 440 253 412 238 514 288 646 312 122 23 174
25 299 12z m-2638 -1118 c0 -326 3 -614 7 -639 4 -29 17 -57 34 -76 26 -29
124 -93 141 -93 5 0 14 -7 21 -15 7 -8 16 -13 20 -10 5 3 11 1 15 -5 4 -6 27
-22 53 -35 26 -14 54 -30 62 -35 25 -17 221 -130 225 -130 2 0 33 -18 69 -40
36 -22 69 -40 73 -40 3 0 14 -6 22 -14 9 -7 41 -27 71 -43 30 -17 96 -54 145
-83 109 -64 146 -85 205 -118 25 -14 62 -36 82 -49 21 -12 40 -23 44 -23 3 0
12 -7 20 -15 17 -17 32 -6 -186 -130 -85 -49 -171 -99 -191 -111 l-37 -23 -37
21 c-21 11 -81 45 -134 75 -134 78 -409 237 -451 260 -19 11 -86 50 -148 87
-62 36 -115 66 -117 66 -13 0 -220 131 -270 171 -184 145 -289 320 -352 584
-2 11 -6 79 -8 150 -3 116 0 142 25 242 56 224 165 392 344 533 66 52 232 144
245 136 4 -3 8 -272 8 -598z m2413 230 c91 -53 275 -160 410 -238 135 -79 270
-156 300 -173 30 -17 83 -48 118 -69 34 -21 67 -38 72 -38 6 0 10 -4 10 -8 0
-4 14 -16 32 -26 49 -29 154 -133 208 -205 67 -91 123 -208 156 -326 24 -88
28 -117 28 -245 0 -162 -17 -251 -75 -383 -29 -66 -104 -192 -132 -223 -80
-85 -133 -134 -186 -172 -66 -48 -211 -123 -222 -117 -3 3 -6 280 -6 618 0
337 -4 624 -8 637 -19 61 -69 97 -412 292 -47 26 -71 40 -328 188 -126 73
-239 138 -250 144 -10 6 -25 17 -33 24 -7 6 -18 12 -23 12 -5 0 -28 11 -50 26
-22 14 -55 33 -72 43 -18 10 -58 33 -90 51 -32 18 -55 36 -50 40 8 8 302 179
358 209 16 9 32 19 35 22 6 7 33 17 40 14 3 -1 79 -45 170 -97z m-825 -302
c11 -7 38 -24 60 -36 22 -12 124 -71 227 -131 103 -60 192 -109 198 -109 5 0
10 -4 10 -9 0 -5 8 -11 18 -13 16 -4 17 -28 17 -319 -1 -173 -4 -319 -8 -326
-6 -10 -63 -45 -202 -123 -22 -13 -53 -31 -70 -41 -16 -11 -37 -22 -45 -26 -8
-3 -26 -14 -40 -23 -14 -10 -56 -34 -95 -55 -38 -21 -72 -41 -75 -44 -9 -11
-49 2 -90 29 -14 9 -142 83 -220 128 -19 10 -75 43 -125 72 -49 29 -100 58
-112 64 -13 6 -23 18 -24 26 -5 73 -3 609 3 621 7 16 288 185 335 202 13 5 23
13 23 18 0 5 4 9 9 9 5 0 47 22 93 50 45 27 85 49 88 50 3 0 14 -6 25 -14z
m986 -570 l214 -124 -1 -658 c0 -637 -2 -690 -29 -784 -1 -3 -5 -18 -10 -35
-26 -94 -106 -243 -176 -329 -285 -346 -790 -451 -1180 -243 -85 45 -91 48
-135 84 l-39 31 28 13 c15 7 27 16 27 21 0 4 5 8 11 8 6 0 39 17 73 37 33 21
63 38 66 38 3 0 16 8 30 17 14 8 124 72 245 142 121 69 227 130 235 136 46 29
194 110 201 110 5 0 9 3 9 8 0 4 30 23 66 42 36 18 76 45 89 58 56 56 54 24
54 805 0 798 0 747 5 747 2 0 99 -56 217 -124z m-456 -903 l0 -246 -35 -22
c-19 -13 -170 -101 -335 -195 -165 -95 -331 -192 -370 -215 -38 -22 -77 -44
-85 -48 -8 -4 -37 -21 -65 -37 -156 -94 -287 -158 -357 -176 -86 -21 -87 -21
-148 -30 -96 -13 -198 -10 -310 11 -127 24 -295 100 -400 183 -180 142 -286
310 -349 547 -9 34 -25 189 -23 220 1 6 3 35 6 65 2 30 5 61 5 68 2 21 19 14
129 -53 9 -6 68 -40 130 -75 62 -36 128 -73 145 -83 18 -11 127 -73 242 -139
116 -66 222 -129 237 -139 15 -11 29 -19 32 -19 2 0 40 -21 83 -47 70 -43 84
-48 138 -48 53 0 69 5 135 44 41 24 95 55 120 69 25 13 50 29 57 34 7 5 27 17
45 27 18 9 107 60 198 113 91 53 181 105 200 116 19 10 113 65 209 121 95 55
175 101 176 101 1 0 42 24 91 54 49 29 91 51 94 49 2 -2 4 -115 5 -250z"/>
</g>
</svg>
