<svg version="1.0" xmlns="http://www.w3.org/2000/svg" width="933.333" height="933.333" viewBox="0 0 700 700"><path d="M57.3 59.1C44.2 61.3 29 69.7 20 79.8 13.8 86.7 6.6 101 4.8 110c-2 9.7-1.9 470.5 0 480 5 23.9 24.7 44 49.2 50.1 8.1 2.1 583.7 2.1 592 0 18.4-4.5 35.1-17.7 43.5-34.3 7-14.1 6.6 4.9 6.3-258.8l-.3-237.5-2.2-6.5c-5.4-15.6-17.1-29.6-30.9-36.7-15.6-8.1-11.4-7.7-81.4-8.1-56.8-.3-62.8-.2-65.6 1.3-6 3.2-7.2 10.5-2.5 15.7l2.9 3.3 62.9.5c55.2.5 63.3.7 66.9 2.2 13.6 5.4 22.1 13.8 27.5 27.3l2.4 6 .3 199 .2 199-115.2-115.3L445.5 282h-9l-23 23.4c-12.6 12.8-46.3 46.5-74.8 74.7l-51.8 51.3-19.2-19.1c-19.5-19.5-21.9-21.2-27.4-19.9-1.9.5-35.7 33.5-106.3 104.2L30.4 600.1l-1.8-3.8c-4.8-9.8-4.6.7-4.6-244.8 0-253.1-.3-239 5.9-249.9 3.4-5.8 11.9-14.4 17-17.1 10.5-5.4-3.8-5 192.4-5.5l180.9-.5 2.9-3.3c4.5-5.1 3.6-12.2-2.1-15.5-2.6-1.6-16.4-1.7-180.7-1.6-97.8.1-180.1.5-183 1zm248.9 420.6c38.9 38.9 63.8 63.1 65.4 63.5 1.6.4 4.2.1 6.6-.9l4-1.6 11.9 12 12 11.9-1.5 2.9c-2.5 4.8-2 8.3 1.8 12.1 3.9 3.9 8.5 4.5 12.5 1.8 2.3-1.7 2.5-1.5 23 19l20.6 20.6-202-.2-202-.3-5.7-2.3c-3.2-1.3-6.1-2.8-6.4-3.4C45.8 613.9 241.6 417 243 417c.2 0 28.7 28.2 63.2 62.7z"/><path d="M465.8 59.5c-3.5 1.9-4.8 4.4-4.8 9 0 7.5 6.5 12 13.3 9.2 7-3 8.9-10.3 4-15.7-3.4-3.7-8.5-4.7-12.5-2.5zm-294.3 88.1c-21.1 5.1-33.7 12.4-44 25.6-10.2 13.1-14.7 26.1-14.8 43.3 0 18.1 6.1 33.7 18.5 47 14.7 15.8 30.9 22.9 51.8 22.8 11.5 0 19.6-2 31-7.6 16.9-8.2 31.1-26.1 36-45.3 4-15.6 2.2-30.8-5.5-46.9-8.7-18-23.2-30.6-42-36.5-6.8-2.1-26-3.6-31-2.4zm25.8 22.5c20 6.7 33.7 25.5 33.7 46.3 0 11.3-3.1 20.6-9.9 29.6-13 17.3-35.2 23.9-56.1 16.5-14.7-5.2-27.6-20.3-30.9-36.3-3.3-15.8 1.7-32.1 13.3-43.8 6.2-6.2 11.1-9.3 20.1-12.5 7.3-2.6 21.6-2.5 29.8.2z"/></svg>