<svg height="512" viewBox="0 0 60 60" width="512" xmlns="http://www.w3.org/2000/svg"><path d="M5 44V6a2.006 2.006 0 012-2h46a2.006 2.006 0 012 2v38z" fill="#205b75"/><path d="M59 52v3a1 1 0 01-1 1H2a1 1 0 01-1-1v-3l4-10h50z" fill="#cadbea"/><path d="M59 52v3a1 1 0 01-1 1H2a1 1 0 01-1-1v-3z" fill="#abbbcc"/><path d="M45.27 8H50a1 1 0 011 1v28a1 1 0 01-1 1H10a1 1 0 01-1-1V9a1 1 0 011-1z" fill="#114559"/><path d="M19 52l1.749-4.371a1 1 0 01.928-.629h16.646a1 1 0 01.928.629L41 52z" fill="#e1eaf4"/><path d="M15 18a1 1 0 00.707-1.707L14.414 15l1.293-1.293a1 1 0 00-1.414-1.414l-2 2a1 1 0 000 1.414l2 2A1 1 0 0015 18zm9.293-.293a1 1 0 001.414 0l2-2a1 1 0 000-1.414l-2-2a1 1 0 00-1.414 1.414L25.586 15l-1.293 1.293a1 1 0 000 1.414zm-5.74.193a1 1 0 001.342-.448l2-4a1 1 0 10-1.79-.894l-2 4a1 1 0 00.448 1.342z" fill="#fff"/><path d="M18 21a1 1 0 00-1-1h-3a1 1 0 000 2h3a1 1 0 001-1z" fill="#e5bb33"/><path d="M20 21a1 1 0 001 1h8a1 1 0 000-2h-8a1 1 0 00-1 1z" fill="#eb6374"/><path d="M25 25a1 1 0 00-1-1h-8a1 1 0 000 2h8a1 1 0 001-1zm-9 3a1 1 0 000 2h5a1 1 0 000-2z" fill="#e5bb33"/><path d="M41 30h3a1 1 0 000-2h-3a1 1 0 000 2z" fill="#82ecff"/><path d="M24 29a1 1 0 001 1h12a1 1 0 000-2H25a1 1 0 00-1 1z" fill="#eb6374"/><path d="M18 32h-2a1 1 0 000 2h2a1 1 0 000-2z" fill="#e5bb33"/><path d="M44 32H33a1 1 0 000 2h11a1 1 0 000-2z" fill="#82ecff"/><path d="M29 32h-7a1 1 0 000 2h7a1 1 0 000-2z" fill="#eb6374"/></svg>