<svg xmlns="http://www.w3.org/2000/svg" viewBox="0 0 1906.7 512"><path d="M475.3 209.6c11.6-34.9 7.6-73.1-11-104.8-27.9-48.6-84.1-73.7-138.9-61.9C301 15.4 265.9-.2 229.2 0c-56.1-.1-105.8 36-123.1 89.3-36 7.4-67.1 29.9-85.3 61.9C-7.3 199.7-.9 260.9 36.7 302.5c-11.6 34.9-7.6 73.1 11 104.8 27.9 48.6 84.1 73.7 138.9 61.9 24.4 27.5 59.5 43.1 96.2 42.9 56.1.1 105.9-36 123.1-89.4 36-7.4 67.1-29.9 85.3-61.9 28.1-48.6 21.7-109.7-15.9-151.2zM282.8 478.5c-22.4 0-44.2-7.8-61.4-22.2.8-.4 2.1-1.2 3-1.7l102-58.9c5.2-3 8.4-8.5 8.4-14.5V237.5l43.1 24.9c.5.2.8.7.8 1.2v119c-.1 52.9-42.9 95.8-95.9 95.9zm-206.1-88c-11.2-19.4-15.3-42.2-11.4-64.3.8.4 2.1 1.3 3 1.8l102 58.9c5.2 3 11.6 3 16.8 0L311.4 315v49.8c0 .5-.2 1-.6 1.3l-103.1 59.5c-45.8 26.4-104.4 10.7-131-35.1zM49.9 167.9c11.2-19.5 28.9-34.3 49.9-42.1v121.3c0 6 3.2 11.5 8.4 14.5l124.5 71.9-43.1 24.9c-.4.3-1 .3-1.5.1L85 299c-45.8-26.5-61.6-85.2-35.1-131.1zm354 82.4l-124.5-71.9 43.1-24.9c.4-.3 1-.3 1.5-.1L427 213c45.9 26.5 61.6 85.2 35.1 131.1-11.2 19.4-28.9 34.3-49.9 42V264.8c.1-6-3.1-11.5-8.3-14.5zm42.9-64.5c-.8-.5-2.1-1.3-3-1.8l-102-58.9c-5.2-3-11.6-3-16.8 0L200.6 197v-49.8c0-.5.2-1 .6-1.3l103.1-59.5c45.9-26.5 104.6-10.7 131.1 35.2 11.1 19.4 15.1 42.1 11.4 64.2zm-269.7 88.7L134 249.6c-.5-.2-.8-.7-.8-1.2v-119c0-53 43-95.9 96-95.9 22.4 0 44.1 7.9 61.3 22.2-.8.4-2.1 1.2-3 1.7l-102 58.9c-5.2 3-8.4 8.5-8.4 14.5v143.7zm23.5-50.5l55.4-32 55.4 32v64L256 320l-55.4-32v-64z" fill="#18c389"/><path d="M692.7 369.8c-15.8 0-30.4-2.7-43.6-8-13.3-5.3-24.9-12.8-34.7-22.5-9.8-9.7-17.4-21.2-22.7-34.5-5.3-13.3-7.9-27.9-7.9-43.9 0-15.6 2.8-30 8.4-43.2 5.6-13.2 13.4-24.6 23.3-34.4 9.9-9.7 21.6-17.3 35.1-22.6s28.2-8.1 44.3-8.1c10 0 19.8 1.3 29.4 3.9 9.6 2.6 18.5 6.4 26.9 11.5 8.3 5.1 15.4 11.2 21.4 18.1l-31.2 35.7c-4.2-4.4-8.7-8.3-13.4-11.6-4.7-3.3-9.9-5.8-15.5-7.6-5.6-1.8-11.6-2.7-18-2.7-8 0-15.6 1.5-22.6 4.3-7.1 2.9-13.3 7-18.6 12.3-5.3 5.3-9.4 11.8-12.4 19.4-3 7.6-4.5 16.1-4.5 25.5 0 9.2 1.5 17.5 4.5 25s7.2 14 12.6 19.4c5.4 5.4 11.9 9.5 19.7 12.3 7.7 2.8 16.2 4.2 25.6 4.2 6.4 0 12.5-.9 18.3-2.7 5.8-1.8 11.1-4.2 16.1-7.4 4.9-3.1 9.2-6.6 13-10.6l24.6 39c-5 5.6-11.7 10.6-20 15s-17.5 7.9-27.6 10.3c-10.2 2.7-20.3 3.9-30.5 3.9zm107.6-3v-222h47.1v95.1l-9.6 3.6c2.2-7.2 6.2-13.7 11.9-19.7 5.7-5.9 12.5-10.6 20.5-14.3 8-3.6 16.4-5.4 25.2-5.4 12 0 22.1 2.5 30.3 7.4s14.4 12.2 18.6 21.9c4.2 9.7 6.3 21.6 6.3 35.5v97.8h-48.3v-93.9c0-6.4-.9-11.7-2.7-15.9-1.8-4.2-4.6-7.3-8.3-9.4-3.7-2.1-8.3-3-13.6-2.9-4.2 0-8.1.7-11.7 2-3.6 1.3-6.7 3.2-9.3 5.7-2.6 2.5-4.7 5.4-6.2 8.6-1.5 3.2-2.3 6.7-2.3 10.5v95.4h-47.9zm249.3 2.7c-13.4 0-25.3-3.5-35.8-10.7-10.5-7.1-18.9-16.9-25-29.4-6.2-12.5-9.3-26.6-9.3-42.5 0-16.2 3.1-30.5 9.3-42.9 6.2-12.4 14.7-22.1 25.5-29.3 10.8-7.1 23.1-10.6 36.9-10.6 7.6 0 14.6 1.1 20.9 3.3 6.3 2.2 11.8 5.3 16.6 9.1 4.8 3.9 8.9 8.4 12.3 13.5 3.4 5.1 5.9 10.6 7.5 16.4l-9.9-1.2v-37.8h47.7v159.3h-48.6v-38.4l10.8-.3c-1.6 5.6-4.2 10.9-7.8 15.9-3.6 5-8 9.4-13.2 13.2-5.2 3.8-11 6.8-17.4 9-6.5 2.3-13.3 3.4-20.5 3.4zm13.2-40.5c7.4 0 13.8-1.7 19.2-5.1 5.4-3.4 9.6-8.2 12.6-14.5 3-6.3 4.5-13.7 4.5-22.3 0-8.6-1.5-16-4.5-22.3-3-6.3-7.2-11.2-12.6-14.7-5.4-3.5-11.8-5.3-19.2-5.3-7.2 0-13.5 1.8-18.8 5.3-5.3 3.5-9.5 8.4-12.5 14.7-3 6.3-4.5 13.8-4.5 22.3 0 8.6 1.5 16 4.5 22.3 3 6.3 7.1 11.2 12.5 14.5 5.4 3.4 11.6 5.1 18.8 5.1zm110.7-79.5v-42h107.1v42h-107.1zm28.2 117.3V167.3h48v199.5h-48zm208.8 3c-16.8 0-32-2.7-45.6-8.1-13.6-5.4-25.3-13-35.1-22.8s-17.3-21.3-22.5-34.6c-5.2-13.3-7.8-27.8-7.8-43.3 0-15.6 2.7-29.9 8.3-43.1 5.5-13.1 13.3-24.5 23.5-34.3 10.2-9.8 22.2-17.4 36.1-22.8 13.9-5.4 29-8.1 45.5-8.1 11.6 0 22.5 1.5 32.9 4.5 10.3 3 19.6 7.1 28 12.3 8.4 5.2 15.5 11.2 21.3 18l-30.9 32.7c-5-4.8-10.2-8.8-15.4-12-5.3-3.2-11-5.7-17-7.6-6-1.9-12.4-2.9-19.2-2.9-8.8 0-16.9 1.6-24.2 4.8-7.3 3.2-13.7 7.6-19.2 13.4-5.5 5.7-9.8 12.4-12.8 20.1-3 7.7-4.5 16.1-4.5 25.1s1.6 17.4 4.8 25.2c3.2 7.8 7.6 14.6 13.2 20.3 5.6 5.7 12.2 10.2 19.9 13.5 7.7 3.3 15.9 5 24.8 5 6.2 0 12-1 17.6-3 5.5-2 10.2-4.7 14.3-8.1 4-3.4 7.2-7.4 9.6-12.2 2.4-4.7 3.6-9.8 3.6-15.1v-7.8l6.6 10.2h-57.9v-39.9h98.7c.4 2.2.7 5.2.9 9 .2 3.8.3 7.5.4 11.1.1 3.6.2 6.3.2 8.1 0 13.6-2.5 26.1-7.3 37.4-4.9 11.3-11.8 21.1-20.6 29.3s-19.2 14.6-31.2 19.2c-12 4.2-25 6.5-39 6.5zm137.1-3v-210h90.6c13.2 0 24.9 3 35.3 9 10.3 6 18.5 14.2 24.6 24.6 6.1 10.4 9.2 22.1 9.2 35.1 0 13.6-3.1 25.8-9.2 36.4-6.1 10.7-14.3 19.2-24.6 25.3-10.3 6.2-22 9.3-35.3 9.3h-39.6v70.2h-51zm50.1-114.9h33.3c4.4 0 8.4-1.1 12-3.3 3.6-2.2 6.5-5.2 8.7-9 2.2-3.8 3.3-8.2 3.3-13.2 0-5.2-1.1-9.6-3.3-13.2-2.2-3.6-5.1-6.4-8.7-8.4-3.6-2-7.6-3-12-3h-33.3v50.1zm194.1 114.9v-165h-62.4v-45h177.3v45h-63.9v165h-51z" fill="#fff"/></svg>